<?xml version="1.0" encoding="utf-8"?>
<!-- Generator: Adobe Illustrator 22.1.0, SVG Export Plug-In . SVG Version: 6.00 Build 0)  -->
<svg version="1.1" id="Layer_1" xmlns="http://www.w3.org/2000/svg" xmlns:xlink="http://www.w3.org/1999/xlink" x="0px" y="0px"
	 viewBox="0 0 700 300" style="enable-background:new 0 0 700 300;" xml:space="preserve">
<style type="text/css">
	.st0{fill:#E6E6E6;}
	.st1{fill:#1A1A1A;}
	.st2{fill:#CCCCCC;}
	.st3{fill:#666666;}
	.st4{fill:#BC9064;}
	.st5{fill:#C69C6D;}
	.st6{fill:#333333;}
	.st7{fill:#42210B;}
	.st8{fill:#AAA9A9;}
	.st9{opacity:0.5;}
	.st10{fill:#957552;}
	.st11{fill:#ED1C24;}
	.st12{fill:#282828;}
	.st13{fill:#C2B6AC;}
	.st14{fill:#808080;}
	.st15{fill:#4D4D4D;}
	.st16{fill:url(#SVGID_1_);}
	.st17{fill:url(#SVGID_2_);}
	.st18{fill:url(#SVGID_3_);}
	.st19{fill:#0C0C0C;}
	.st20{fill:#444343;}
	.st21{fill:#F7931E;}
	.st22{fill:url(#SVGID_4_);}
	.st23{fill:url(#SVGID_5_);}
	.st24{fill:url(#SVGID_6_);}
	.st25{fill:url(#SVGID_7_);}
	.st26{fill:url(#SVGID_8_);}
	.st27{fill:url(#SVGID_9_);}
	.st28{fill:url(#SVGID_10_);}
	.st29{fill:url(#SVGID_11_);}
	.st30{fill:url(#SVGID_12_);}
	.st31{opacity:0.3;fill:#0071BC;}
	.st32{opacity:0.1;fill:#0071BC;}
	.st33{fill:url(#SVGID_13_);}
	.st34{fill:url(#SVGID_14_);}
	.st35{fill:url(#SVGID_15_);}
	.st36{fill:url(#SVGID_16_);}
	.st37{filter:url(#Adobe_OpacityMaskFilter);}
	.st38{filter:url(#Adobe_OpacityMaskFilter_1_);}
	.st39{mask:url(#SVGID_17_);fill:url(#SVGID_18_);}
	.st40{opacity:0.2;fill:url(#SVGID_19_);}
	.st41{fill:url(#SVGID_20_);}
	.st42{fill:url(#SVGID_21_);}
	.st43{fill:url(#SVGID_22_);}
	.st44{fill:url(#SVGID_23_);}
	.st45{fill:url(#SVGID_24_);}
	.st46{fill:url(#SVGID_25_);}
	.st47{fill:url(#SVGID_26_);}
	.st48{fill:url(#SVGID_27_);}
	.st49{fill:url(#SVGID_28_);}
	.st50{fill:url(#SVGID_29_);}
	.st51{fill:url(#SVGID_30_);}
	.st52{fill:url(#SVGID_31_);}
	.st53{fill:url(#SVGID_32_);}
	.st54{opacity:0.5;fill:url(#SVGID_33_);}
	.st55{fill:url(#SVGID_34_);}
	.st56{fill:url(#SVGID_35_);}
	.st57{opacity:0.3;fill:#F2F2F2;}
	.st58{fill:#F2F2F2;}
	.st59{fill:url(#SVGID_36_);}
	.st60{fill:url(#SVGID_37_);}
	.st61{opacity:0.5;fill:url(#SVGID_38_);}
	.st62{fill:url(#SVGID_39_);}
	.st63{fill:#F15A24;}
	.st64{fill:#2E3192;}
	.st65{fill:url(#SVGID_40_);}
	.st66{fill:#A53108;}
	.st67{opacity:0.3;}
	.st68{fill:none;stroke:#4D4D4D;stroke-width:0.2249;stroke-miterlimit:10;}
	.st69{filter:url(#Adobe_OpacityMaskFilter_2_);}
	.st70{filter:url(#Adobe_OpacityMaskFilter_3_);}
	.st71{mask:url(#SVGID_41_);fill:url(#SVGID_42_);}
	.st72{opacity:0.2;fill:url(#SVGID_43_);}
</style>
<g>
	<path class="st0" d="M666.1,232.3c0,22.5-142.6,40.7-318.5,40.7S29,254.8,29,232.3c0-22.5,142.6-40.7,318.5-40.7
		S666.1,209.9,666.1,232.3z"/>
	<g>
		<g>
			<path class="st1" d="M451.1,106.8c0.3-8.4,2-16.5,3.7-24.6c1.7-9.2,8.4-12.7,18.2-17.8c10.7-5.6,25.8-6.1,39.1-4.4
				c11.6,1.4,16.8,4,25.8,9.4c18,11,11.2,31.4,11.9,45.4c0.3,7-0.3,20.1-2.4,26.9c-3.4,9.7-15.2,5-26.7,6.3
				c-10.5,1.1-23,1.6-33.8,0.5c-14.2-1.6-24.7-16.5-26.7-26.7"/>
		</g>
		<g>
			<g>
				<path d="M549.4,228.4c0,3.4-4.1,6.2-9.2,6.2c-5.1,0-9.2-2.8-9.2-6.2c0-3.4,4.1-6.2,9.2-6.2C545.2,222.1,549.4,224.9,549.4,228.4
					z"/>
				<path class="st2" d="M543.5,228.4c0,1.2-1.5,2.3-3.3,2.3c-1.9,0-3.4-1-3.4-2.3c0-1.3,1.5-2.3,3.4-2.3
					C542,226.1,543.5,227.1,543.5,228.4z"/>
			</g>
			<g>
				<path d="M544.7,207.3c0,3.4-4.1,6.2-9.2,6.2s-9.2-2.8-9.2-6.2c0-3.4,4.1-6.2,9.2-6.2S544.7,203.9,544.7,207.3z"/>
				<path class="st2" d="M538.8,207.3c0,1.3-1.5,2.3-3.4,2.3c-1.8,0-3.3-1-3.3-2.3c0-1.2,1.5-2.3,3.3-2.3
					C537.3,205,538.8,206.1,538.8,207.3z"/>
			</g>
			<rect x="483" y="143.9" class="st3" width="13.8" height="68.1"/>
			<g>
				<path class="st3" d="M488.5,206.5c18.7-2.6,35.2-5.4,45.1-6.6c2.4-0.3,5.3,0.8,5.3,2.5c0,0.9-8.7,2.3-20.7,4.2
					c-10.2,1.7-21.5,3.5-28.9,4.7"/>
			</g>
			<g>
				<path class="st3" d="M491.3,207c9.9,2.8,21.8,5.7,27.2,7.1c14.9,3.8,22.6,5.9,27.5,7.6c4,1.4-0.9,4.5-4.8,3.3
					c-7.9-1.7-49.8-12.6-56.5-14.3"/>
			</g>
			<g>
				<path d="M429.4,228.4c0,3.4,4.1,6.2,9.2,6.2c5.1,0,9.2-2.8,9.2-6.2c0-3.4-4.1-6.2-9.2-6.2C433.6,222.1,429.4,224.9,429.4,228.4z
					"/>
				<path class="st2" d="M435.3,228.4c0,1.2,1.5,2.3,3.3,2.3c1.8,0,3.4-1,3.4-2.3c0-1.3-1.5-2.3-3.4-2.3
					C436.8,226.1,435.3,227.1,435.3,228.4z"/>
			</g>
			<g>
				<path d="M434.1,207.3c0,3.4,4.1,6.2,9.2,6.2c5.1,0,9.2-2.8,9.2-6.2c0-3.4-4.1-6.2-9.2-6.2C438.2,201.1,434.1,203.9,434.1,207.3z
					"/>
				<path class="st2" d="M440,207.3c0,1.2,1.5,2.3,3.3,2.3c1.8,0,3.3-1,3.3-2.3c0-1.2-1.5-2.3-3.3-2.3
					C441.5,205,440,206.1,440,207.3z"/>
			</g>
			<g>
				<path class="st3" d="M490.3,206.5c-18.7-2.6-35.2-5.4-45.1-6.6c-2.4-0.3-5.3,0.8-5.3,2.5c0,0.9,8.7,2.3,20.7,4.2
					c10.2,1.7,21.5,3.5,28.9,4.7"/>
			</g>
			<g>
				<path class="st3" d="M487.5,207c-9.9,2.8-21.7,5.7-27.2,7.1c-14.9,3.8-22.7,5.9-27.5,7.6c-4,1.4,0.9,4.5,4.8,3.3
					c7.9-1.7,49.8-12.6,56.5-14.3"/>
			</g>
		</g>
		<g>
			<g>
				<path class="st1" d="M528.7,138.3c55.9,2.7-8.6,26-19.7,28.7c-13.5,3.2-28,2.1-38.7,0.5c-7.1-1.2-13.7-4.1-19.8-6.8
					c-9.2-3.4-9.1-5.5-1.5-10.4c8.1-5.2,15.6-8.6,25.3-11.9"/>
			</g>
		</g>
		<g>
			<path class="st4" d="M436.8,148c-5.3,2.3-19.7,6.4-18.6,14.7c1.2,8.3,14.8,44.9,9,60.6c-1.8,4.8-6.6,9.4-6.6,9.4
				c-4.5,3.7-6.2,6-7.8,7.8c-2.4,2.7,16.1,0.4,24-5.5c7.9-5.9,14.8-10.2,10-15.2c-4.8-4.9-7.8-8.3-4-23.6c2.4-9.6,7-25.6,4.9-32.7
				c0,0,8.7-2.1,25.4-7.7L436.8,148z"/>
			<g>
				<path d="M444.5,217.2c1.7,1.3,4.6,4.2,4.6,6.6c-0.1,2.2-0.2,3.3-1.8,5.7c-1.1,1.6-1.5,8.8-1.5,8.8s-1.1,0.3-1.4,0.3
					c-1.1-0.1-1.3-0.2-1.3-0.2s0.2-2.8,0.3-5.4c-3,1.8-2.2,6.8-7.7,8.3c-4.3,1.2-15,2.7-19.4,3.2c-2.3,0.2-9.6,1.8-10-0.5
					c-0.3-1.5,5.9-5.4,7.8-6.6c3.8-2.4,4.4-3.1,6.6-4.9c2.4,3.2,11.3,1.8,16.7-1.9C442.5,227.4,444.9,220.2,444.5,217.2"/>
			</g>
		</g>
		<g>
			<path class="st5" d="M460.6,149.9c-5.3,2.3-19.7,6.4-18.6,14.7c1.2,8.3,14.8,44.9,9,60.6c-1.8,4.8-6.6,9.4-6.6,9.4
				c-4.5,3.7-6.2,6-7.8,7.8c-2.4,2.7,16.1,0.4,24-5.5s14.8-10.2,10-15.2c-4.8-4.9-7.8-8.3-4-23.6c2.4-9.6,7-25.6,4.9-32.7
				c0,0,8.7-2.1,25.4-7.7L460.6,149.9z"/>
			<g>
				<path d="M468.3,219.1c1.7,1.3,4.6,4.2,4.6,6.6c-0.1,2.2-0.2,3.3-1.8,5.7c-1.1,1.6-1.5,8.8-1.5,8.8s-1.1,0.3-1.4,0.3
					c-1.1-0.1-1.3-0.2-1.3-0.2s0.2-2.8,0.3-5.4c-3,1.8-2.2,6.8-7.7,8.3c-4.3,1.2-15,2.7-19.4,3.2c-2.3,0.2-9.6,1.8-10-0.5
					c-0.3-1.5,5.9-5.4,7.8-6.6c3.8-2.4,4.4-3.1,6.6-4.9c2.4,3.2,11.3,1.8,16.7-1.9C466.3,229.3,468.6,222.1,468.3,219.1"/>
			</g>
		</g>
		<path class="st6" d="M472.6,128.5c0,0-41.6,15.9-51.5,27c0,0,45.5-0.9,59.1,7.8c0,0,51.4-12.2,50.8-20.5
			C530.3,134.5,537.8,117.5,472.6,128.5z"/>
		<g>
			<path class="st7" d="M467.2,37.8c-2.3,9.8-1.8,15.4-1.6,19.5c0.5,5.3,0.7,10.6,0.7,16.1c0,2.5-0.2,5-0.5,7.5
				c-0.2,2.5-1.4,3.6-3,5.9c-3.5,5.2,3,4.4,9.5,4.7c6.7,0.3,13.4,0.5,20.1-0.9c7.4-1.4,15.7-1.7,22.7-3.9c2.1-0.6,6.9-1.9,7.9-3.4
				c0.9-1.9-2.3-6.7-2.8-8.6c-1.6-5-3.5-9.5-3.9-14.7c-0.5-5.6,2.3-15.5-1.8-20.5c-4.2-5.5-7.4-5.3-16.5-6.4
				c-5.8-0.8-12.5-1.1-18.3-0.6"/>
		</g>
		<g>
			<path class="st8" d="M474.7,76.3c7-1.1,18.5-0.9,25.7,0.1c10.1,1.4,9.9,7.8,8.3,13.4c-2,6.7-6.8,12.6-11.5,18.6
				c-2.5,3.2-6.8,6.5-13.1,5.3c-9.5-1.5-8.3-11.6-8.3-16.4c0-5.2,0.4-10.2,0.4-15.4c0-2,0-4,0-5.8"/>
		</g>
		<g>
			<path class="st6" d="M485.8,72.9c-6.1,0.7-10.5,2-17.2,2.9c-8.1,1.5-13.8,2.9-14.9,9c-2.6,15-5.1,27-7.8,37.4"/>
		</g>
		<g>
			<g>
				<path class="st7" d="M512.3,49.8c-0.5,1.8-1.1,1.4-2,3.7c-1.8,4.8-2.7,4.6-4.9,6.9c-1.8,1.9-4.5-0.6-4.5-3.2
					c-0.1-4.7,4.7-6.5,10.1-7.7"/>
			</g>
		</g>
		<g>
			<path class="st5" d="M509.2,53.7c-3.2,3.8-4.3,7.5-4.6,11.8c-0.2,3.7-0.5,7.5,0.2,11.2c0.8,4-15,0.7-14.9-0.3
				c0.3-1.5-7.1,2.1-6.1,0.9c2.4-2.5,2.2-5.7,2.4-8.5c0-2.2,0.5-4.7-0.5-6.7c-0.9-1.7-2.5-3.3-3.5-4.9"/>
		</g>
		<g class="st9">
			<path class="st10" d="M486.2,68.7c0,0.8-0.1,1.6-0.1,2.5c8.8,1.6,13.9-4,18.8-7.9c0.5-3.4,1.7-6.5,4.3-9.6l-27.1,3.4
				c1,1.6,2.7,3.2,3.5,4.9C486.7,64.1,486.2,66.6,486.2,68.7z"/>
		</g>
		<g>
			<g>
				<path class="st5" d="M470.7,35.8c-4.2,6.5-0.1,20.6,6,26.2c12.5,11.6,26.9,1.3,31-8.4c0.2-0.6,3.2-4.4,1.7-12.4"/>
			</g>
		</g>
		<g>
			<g>
				<path class="st7" d="M473.9,30.6c-1.6,4.1,2.1,9.3,7.3,11.6c0.1-1.4-0.6-2.9,0.2-4.2c2.9,0.9,5.1,3.5,8,4.4
					c3.5,0.6,3.6-0.8,5-0.7c1.7,0.1,4.3,1.3,6.1,1.7c2.8,0.4,0.8,5.5,3.5,5.4c4.1,0.1,7.5,2.7,9.2-0.8c3.7-7.5-0.5-14.6-7.3-18.6
					c-7.9-4.7-22.8-4.9-28.8-0.9"/>
			</g>
		</g>
		<path class="st5" d="M513.3,50.6c-0.7,2.9-3.2,5-5.5,4.8c-2.3-0.3-3.6-2.8-2.9-5.7c0.7-2.9,3.2-5,5.5-4.8
			C512.7,45.1,514,47.7,513.3,50.6z"/>
		<g>
			<g>
				<path class="st7" d="M478.4,35.3c-1.3,2.3-1.4,4.1-3.2,6.3c-1,1.2-2.7,2.6-4.5,3.8c-1.2,0.8-1.5,2.4-1.7,3.7
					c-1.7-2.5-2.6-8.9-1.5-12.1c1.3-3.8,6.6-9.3,13.8-8.2"/>
			</g>
		</g>
		<g>
			<path class="st11" d="M486.8,77c-7.8,6.9,14.5,3.9,4.7-0.7"/>
		</g>
		<g>
			<path class="st11" d="M490.6,81.1c3,8.4,2.4,17.1,1.4,25.6c-0.3,4.8-2.7,12.3-6.4,16.2c-1-2.7-3-5-4.4-7.5c-2-3.9,0.3-7.8,2-11.4
				c3-8.2,3.7-16,5.4-24.4"/>
		</g>
		<g>
			<path class="st6" d="M529.4,101.4c0,8.8-6.2,9.3-6.2,17.8c0,4,6.2,11.6,7.1,15.3c1.4,4.3,4,10.5,3.5,12.8
				c-7.4,2.6-18,11-28.3,8.9c-5-0.9-12.2-3-16.2-4.9c-5.9-2.4-5-4-5-8.5c0.5-6.7,1.4-13.4,0-19.8c-1.3-8.5-2.1-11.1,6.1-20.1
				c4.7-5.1,11.5-13.4,19.6-16.4c6.3-2.4,7.2,0.9,11.3,4.6c3.6,3.3,9,6.7,9.9,11"/>
		</g>
		<g>
			<path class="st6" d="M481.8,87.5c-1,11.6,3.7,20.5,3.9,23.5c0.4,5.2-4.7,19.3-7.1,24.1c-1.7,3.9-3,7.5-9.4,7.1
				c-3-0.2-6.4-0.9-9.5-1.1c-7.4-0.2-10.5,0-10.5-5.7c0-6.9-2.9-10-1.5-16.8c1.4-8,7.6-19.9,12-27.5c2.4-3.9,3.4-6.6,9.1-5
				c2.7,0.9,8.1,3.2,9.8,4.8"/>
		</g>
		<g>
			<path class="st12" d="M517.5,97.6c-1.4,6.4-6.1,13.8-24.9,19.6c-6.8,2.1-4.9,7-13.4,10.2c-9.1,3.4,15.4,2.8,20.8,1.6
				c14.9-3.7,14-11.9,17.1-20.7"/>
		</g>
		<g>
			<path class="st12" d="M464.7,98.7c-0.2,4.4,3.9,9.2,7.9,12.5c2.1,1.9,5.1,3.9,6,6.4c0.5,1.9-0.5,3-2.6,4.5
				c-0.9,0.8-5.1,4.8-7.4,5c-1.4,0.2-3.3-1.3-4-2.3c-3.9-4.2,0-7.7-1.1-16c-0.3-2.2,0-6.1,0.3-8.1"/>
		</g>
		<g>
			<g>
				<path class="st13" d="M538.7,143.1c0.5,2.5,8.5-0.8,8.3-1.5c-1-3.7-4-9.9-7.3-11c-4.8-1.3-15.1,3.3-19.4,4.9
					c-13.5,4.1-14.6,14.9-15.7,25.7c6.1,1.4,10.3-0.6,11-1.6c2.3-3.2-0.7-10.4,1.5-15.1c1.8-5,6.3-9.1,13.2-9.9
					C538.5,133.8,538.1,140.3,538.7,143.1z"/>
			</g>
		</g>
		<g>
			<path class="st14" d="M543.7,126.1c-7.9-2.2-44.6,10.7-42.8,14.6c7.9,2.4,18.5,3,28-1.5C532.9,137.1,551.4,129.2,543.7,126.1"/>
		</g>
		<g>
			<path class="st2" d="M489.9,76.3c4.4,1.6,8.1,4.8,9.5,7.8c2.2-2.6,7.5-7.4,8.5-10.6c0.7-2.2-2.6-2.8-2.7-4.9
				C501.4,73,494.8,75.3,489.9,76.3"/>
		</g>
		<g>
			<path class="st2" d="M486.2,69.4c0.1,4.3,2.3,4.6,3.7,6.9c-5.1,1.4-8.5,4.8-10.5,8.2c-0.3-5.5,0.5-13.3,6.6-15.1"/>
		</g>
		<g>
			<path class="st15" d="M486,69.4c-6.1,1.1-10.9,3.7-14.1,7.2c-2,2.4-5.9,8-5.2,10.8c0.1,0.5,5.4,0.9,5.7,1.7
				c0.3,0.6-3.3,4.3-1.8,5.2c4.5,2.7,7.9,5.4,10.9,9.9c1.8,2.8,3.7,5.3,3.7,5.6c0.2-3.3-2.8-19.2-3-22.5c-0.2-3.3-0.9-6.4-0.9-9.9
				C481.4,73.8,482.8,70.4,486,69.4"/>
		</g>
		<g>
			<g>
				<path class="st1" d="M164.9,75.4c-13.5-13.4-43-9.6-54.8,4.3c-7.5,8.9-3.1,20.8-2.4,35.5c0.6,11.2-0.9,23.5-1.5,34.7
					c-0.3,7-4.7,27.6,1.4,33c5.1,4,17.3-7.6,24.6-5.6c7.3,1.9,13.9,0.7,21.2-0.1"/>
			</g>
		</g>
		<g>
			<path d="M161,77c-28.5-11-32.6,15.8-32.6,28.9c0,9.6,9.2,41.3,24.4,18.6"/>
		</g>
		<g>
			<g>
				<path d="M223.7,245c0,3.4-4.1,6.2-9.2,6.2c-5.1,0-9.2-2.8-9.2-6.2c0-3.4,4.1-6.2,9.2-6.2C219.5,238.8,223.7,241.6,223.7,245z"/>
				<path class="st2" d="M217.8,245c0,1.2-1.5,2.3-3.4,2.3c-1.8,0-3.3-1-3.3-2.3c0-1.3,1.5-2.3,3.3-2.3
					C216.3,242.8,217.8,243.8,217.8,245z"/>
			</g>
			<g>
				<path d="M219,223.9c0,3.4-4.1,6.2-9.2,6.2c-5.1,0-9.2-2.8-9.2-6.2s4.1-6.2,9.2-6.2C214.9,217.7,219,220.5,219,223.9z"/>
				<path class="st2" d="M213.1,223.9c0,1.2-1.5,2.3-3.4,2.3c-1.8,0-3.3-1-3.3-2.3c0-1.2,1.5-2.3,3.3-2.3
					C211.6,221.7,213.1,222.7,213.1,223.9z"/>
			</g>
			<rect x="157.3" y="160.5" class="st3" width="13.8" height="68.1"/>
			<g>
				<path class="st3" d="M162.8,223.1c18.7-2.6,35.2-5.3,45.1-6.6c2.4-0.3,5.3,0.8,5.3,2.5c0,0.9-8.6,2.3-20.7,4.2
					c-10.2,1.7-21.5,3.5-28.9,4.7"/>
			</g>
			<g>
				<path class="st3" d="M165.6,223.6c9.9,2.8,21.8,5.7,27.2,7.1c14.9,3.8,22.6,5.9,27.5,7.6c4,1.4-0.9,4.5-4.8,3.3
					c-7.9-1.7-49.8-12.6-56.5-14.3"/>
			</g>
			<g>
				<path d="M103.7,245c0,3.4,4.1,6.2,9.2,6.2c5.1,0,9.2-2.8,9.2-6.2c0-3.4-4.1-6.2-9.2-6.2C107.8,238.8,103.7,241.6,103.7,245z"/>
				<path class="st2" d="M109.6,245c0,1.2,1.5,2.3,3.3,2.3c1.9,0,3.4-1,3.4-2.3c0-1.3-1.5-2.3-3.4-2.3
					C111.1,242.8,109.6,243.8,109.6,245z"/>
			</g>
			<g>
				<ellipse cx="117.6" cy="224" rx="9.2" ry="6.2"/>
				<path class="st2" d="M114.3,224c0,1.2,1.5,2.3,3.4,2.3c1.8,0,3.3-1,3.3-2.3c0-1.2-1.5-2.3-3.3-2.3
					C115.8,221.7,114.3,222.7,114.3,224z"/>
			</g>
			<g>
				<path class="st3" d="M164.6,223.1c-18.7-2.6-35.2-5.4-45.1-6.6c-2.4-0.3-5.3,0.8-5.3,2.5c0,0.9,8.6,2.3,20.7,4.2
					c10.2,1.7,21.5,3.5,28.9,4.7"/>
			</g>
			<g>
				<path class="st3" d="M161.8,223.6c-9.9,2.8-21.8,5.7-27.2,7.1c-14.9,3.8-22.7,5.9-27.5,7.6c-4,1.4,0.9,4.5,4.8,3.3
					c7.9-1.7,49.8-12.6,56.5-14.3"/>
			</g>
		</g>
		<g>
			<path class="st1" d="M110.1,162.5c-5.5,3.5-15.7,25.6,18.6,27.5c13.5,0.7,30.1-0.7,42.9-0.7c15.6,0,32.5,2.3,47.3-1.4
				c19.6-5,16.9-19.6,4.7-28.3c-23-16.9-77.1-8.2-102.8,1.4"/>
		</g>
		<g>
			<linearGradient id="SVGID_1_" gradientUnits="userSpaceOnUse" x1="232.0349" y1="177.1754" x2="247.5883" y2="177.1754">
				<stop  offset="0" style="stop-color:#B7B6B6"/>
				<stop  offset="0.1113" style="stop-color:#C7C6C6"/>
				<stop  offset="0.2362" style="stop-color:#D1D0D0"/>
				<stop  offset="0.3978" style="stop-color:#D4D3D3"/>
				<stop  offset="1" style="stop-color:#666666"/>
			</linearGradient>
			<rect x="232" y="135.3" class="st16" width="15.6" height="83.7"/>
			<linearGradient id="SVGID_2_" gradientUnits="userSpaceOnUse" x1="232.0349" y1="219.0156" x2="247.5883" y2="219.0156">
				<stop  offset="0" style="stop-color:#B7B6B6"/>
				<stop  offset="0.1113" style="stop-color:#C7C6C6"/>
				<stop  offset="0.2362" style="stop-color:#D1D0D0"/>
				<stop  offset="0.3978" style="stop-color:#D4D3D3"/>
				<stop  offset="1" style="stop-color:#666666"/>
			</linearGradient>
			<path class="st17" d="M247.6,219c0,0.4-3.5,0.8-7.8,0.8c-4.3,0-7.8-0.4-7.8-0.8c0-0.4,3.5-0.8,7.8-0.8
				C244.1,218.2,247.6,218.6,247.6,219z"/>
			<linearGradient id="SVGID_3_" gradientUnits="userSpaceOnUse" x1="232.0349" y1="135.3354" x2="247.5883" y2="135.3354">
				<stop  offset="0" style="stop-color:#666666"/>
				<stop  offset="0.6022" style="stop-color:#D4D3D3"/>
				<stop  offset="0.7638" style="stop-color:#D1D0D0"/>
				<stop  offset="0.8887" style="stop-color:#C7C6C6"/>
				<stop  offset="1" style="stop-color:#B7B6B6"/>
			</linearGradient>
			<path class="st18" d="M247.6,135.3c0,0.4-3.5,0.8-7.8,0.8c-4.3,0-7.8-0.4-7.8-0.8c0-0.4,3.5-0.8,7.8-0.8
				C244.1,134.5,247.6,134.9,247.6,135.3z"/>
		</g>
		<path class="st1" d="M265.8,240.2l11.4-3c0,0-3.1-3.1-3.5-3.2c-2.7-0.6-13,3.5-11.6,3.1L265.8,240.2z"/>
		<g>
			<g>
				<path class="st19" d="M252.8,228.1c-1.8,3.5-0.5,11-0.5,11s7.5,1.3,13.6,1.2c-0.6-1.1,0-2.6,0-2.6s5.2,1.5,12.2,3
					c3.3,0.7,17.5,0.5,20.3,0.3c7.9-0.5,13.5-3.2,7-5.8c-7-2.9-18.8-2.3-28.2-10.7c-5.6-5-17.2-4.1-24.9,0.6"/>
			</g>
		</g>
		<g>
			<path class="st6" d="M146.1,146.5c1.3,6.7,1.8,17.7,10.4,22.2c8.1,4.6,24.3,4.3,34.3,4.3c13.1,0,25.7-1.5,38.8-1.2
				c4.1,0,11.3,0,14.5,2.1c3.6,2.4,4,7.6,4,11c0,8.2,0,16.4,0.5,24.7c0,3.7-0.7,15.9,1.2,18.4c1.6,2.1,10.5,4,20,4.1
				c7.6,0.1,15.7-3.9,15.7-3.9s1.4-8.7,1.4-9.9c0-4.3-3.4-27.8-3.4-37.9c0-7.3-1.8-19.3-6.2-23.5c-3.6-3.5-25.8-5.9-32.1-6.5
				c-12.6-1.2-26.7-1.4-38.4-2.9c-9.9-1.5-19.8-1.2-29.7-2.1"/>
		</g>
		<g>
			<path class="st12" d="M264.7,232.9c4.1-0.2,8.7-1,12.4-1.9c5.1-1.6,6.4-5.2,6.4-8.9c0-5.9-3.4-11.2-5.1-17.1
				c-3.1-11.2-1.4-23.1-6.8-34c-2.7-5.3-5.7-10.1-14.2-11.9c-5.7-1.1-12.5-1.6-18.6-1.8c-2.3-0.1-4.6-0.1-6.9-0.2
				c-12.7-0.2,27.8,8.9,31.9,57.7"/>
		</g>
		<path class="st1" d="M253.4,242.6l11.3-3c0,0-3.1-3.1-3.5-3.2c-2.7-0.6-13,3.5-11.6,3.1L253.4,242.6z"/>
		<g>
			<g>
				<path d="M240.4,230.5c-1.8,3.5-0.6,10.9-0.6,10.9s7.5,1.3,13.6,1.2c-0.6-1.1,0-2.6,0-2.6s5.2,1.5,12.2,3
					c3.3,0.7,17.5,0.5,20.3,0.3c7.9-0.5,13.5-3.1,7-5.8c-7-2.9-18.8-2.3-28.2-10.7c-5.6-5-17.1-4.1-24.9,0.6"/>
			</g>
		</g>
		<g>
			<path class="st6" d="M154.7,74.6c1-0.7,2.8-1,6.7,0c3.6,0.9,6,2.6,9.4,3.8c1.5,0.5,4.9,0.9,5.6,2.2c1.2,1.9-2.9,2.1-4.9,2.2
				c-4.9,0.5-20.6,2.2-20.6-3.4"/>
		</g>
		<g>
			<path class="st12" d="M194.6,102.4c3.2,6.2,4.7,25.9,6.1,29.2c0.7,2.1,1.1,4.4,2.3,6.6c0.4,0.8,3.4,3.5,3.1,4.1
				c-1.1,4.4-18.5-2.3-20.1-3.2c-9.7-5.9-5.4-18.6-4.7-26.3c0-2.1-2.2-18.1,3.2-17.1c3.8,0.8,5.6,6.1,9,7.6"/>
		</g>
		<g>
			<path class="st20" d="M176.3,79.7c7.4,4.4,15,14.3,17.6,20.6c2.3,5.7,3.2,8.3,3.8,14.2c-2.3-3.4-4-5.8-6.4-8.2
				c-3.2-3-5.5-3-8.7-6.1c-3.2-2.7-7.2-5.9-7.7-9.4c-0.5-3.3-1.4-8.1-0.1-11.1"/>
		</g>
		<g>
			<path class="st21" d="M182.7,90.2c3.6,7.2,9.9,13.3,12.2,20.9c0.9,3,3.8,15.5,0.7,19.5c-16.7-6.4-12.7-26.9-18.3-37.1"/>
		</g>
		<g>
			<path class="st6" d="M156.4,78.2c-3.3,3-8,5.6-15.1,11.9c-5.2,4.6-9.3,13.5-9.9,19.2c-1.7,12.3-1.7,24.7-3.4,37.2
				c-1,8.2-3.7,16.7-4.1,24.9c10.1,1.4,22,1.4,32.5,1.6c12.2,0.2,28.1,1.8,39.9-0.2c7.1-1.4,3.4-3.4,1.7-7.3c-1.4-2.5-1.7-5.3-2-8
				c-0.7-6.4,0.7-10.8,1-17.2c0-3.9-2-20.6-4.1-28.6c-0.8-2.8-3.3-5.2-7.6-13.3"/>
		</g>
		<g>
			<path class="st12" d="M151,92.1c-5.3-0.2-14,3.1-11.5,14c3.2,14.1,19.3,39.1,25.4,42.9c5.7,4.1,32.1,0.6,39.2-1.9
				c11.2-3.4,1.1-13.1-6.2-16.2c-6.4-2.7-17.8-12.4-25.6-20.5"/>
		</g>
		<g>
			<path class="st2" d="M158.7,74.2c-0.2-1.1,2.5-1.1,3.6-0.9c1.3,0.3,2.1,1.1,3.3,1.5c2.7,1.2,5.6,1.8,8.2,3.1
				c5.6,2.8,6.3,7.5,8,11.7c0.2,0.5,0.7,0.9,0.7,1.5c-2.7-0.2-6.7-2.4-8.8-3.4c-2.3-1.1-4.4-2.2-6.4-3.5c-4.3-2.6-7.7-4.6-8.3-8.7"
				/>
		</g>
		<path class="st7" d="M189.5,61.7c-0.6,6.9-8.1,9.3-17.6,9c-9.5-0.3-17.4-3.3-16.8-10.2c0.6-6.9,8.7-12.2,18.2-11.8
			C182.8,48.9,190,54.8,189.5,61.7z"/>
		<g>
			<path class="st6" d="M133.2,152.1c1.4,6.7,1.8,17.7,10.4,22.2c8.1,4.6,24.3,4.3,34.3,4.3c13.1,0,25.7-1.5,38.8-1.2
				c4.1,0,11.3,0,14.5,2.1c3.6,2.4,4,7.6,4,11c0,8.2,0,16.4,0.4,24.7c0,3.7-0.7,15.9,1.2,18.4c2.2,2.9,26.8,1.2,29.3,0.9
				c1.8-0.2,6.2-1.7,6.2-2.9c0-4.3-1.8-35.6-1.8-45.7c0-7.3-1.8-19.3-6.2-23.5c-3.6-3.5-25.8-5.9-32.1-6.5
				c-12.6-1.2-26.7-1.4-38.4-2.9c-9.9-1.5-19.8-1.2-29.7-2.1"/>
		</g>
		<g>
			<g>
				<path class="st13" d="M144.1,177.5c0.1,2.5-14.9,0.8-15.2,0c-1.1-3.7,9.1-18.5,11.6-20.2c3.8-2.4,24.9-0.5,29.7,0
					c14.8,0.5,17.9,11.3,24.7,21.1c-3.6,1.4-13.6,1-14.8,0.2c-3.8-2.4-2.6-13.5-7.2-17.4c-4.4-4.2-16.1-2.6-22.9-1.8
					C143.9,160,143.9,172.7,144.1,177.5z"/>
			</g>
		</g>
		<g>
			<g>
				<path class="st14" d="M136,153.7c6.1-4,47.3-2.2,47.8,1.9c-6,4.2-11.4,4.3-22.2,4.3C156.4,160,130.5,158.4,136,153.7"/>
			</g>
		</g>
		<g>
			<g>
				<path class="st5" d="M189.5,40.7c20.4,4.5,14.2,23.1,5.6,32.1c-16.6,18.1-37.1-5.9-31.3-18.7"/>
			</g>
		</g>
		<g>
			<g>
				<path class="st5" d="M161.7,59.2c1.7,5,2.5,9.4-1.8,15.5c-4.3,6.2-7.4,8.2,1.6,13.7c4.5,2.8,9.3,6.7,15.7,7.2
					c1.5-2.8-1.2-7.2-1.4-10.7c0-5.2,3.6-7.5,6.6-11.5"/>
			</g>
		</g>
		<g>
			<linearGradient id="SVGID_4_" gradientUnits="userSpaceOnUse" x1="541.9933" y1="205.8897" x2="557.5508" y2="205.8897">
				<stop  offset="0" style="stop-color:#B7B6B6"/>
				<stop  offset="0.1113" style="stop-color:#C7C6C6"/>
				<stop  offset="0.2362" style="stop-color:#D1D0D0"/>
				<stop  offset="0.3978" style="stop-color:#D4D3D3"/>
				<stop  offset="1" style="stop-color:#666666"/>
			</linearGradient>
			<rect x="542" y="164.1" class="st22" width="15.6" height="83.7"/>
			<linearGradient id="SVGID_5_" gradientUnits="userSpaceOnUse" x1="541.9933" y1="247.7283" x2="557.5508" y2="247.7283">
				<stop  offset="0" style="stop-color:#B7B6B6"/>
				<stop  offset="0.1113" style="stop-color:#C7C6C6"/>
				<stop  offset="0.2362" style="stop-color:#D1D0D0"/>
				<stop  offset="0.3978" style="stop-color:#D4D3D3"/>
				<stop  offset="1" style="stop-color:#666666"/>
			</linearGradient>
			<path class="st23" d="M557.6,247.7c0,0.4-3.5,0.8-7.8,0.8c-4.3,0-7.8-0.3-7.8-0.8c0-0.4,3.5-0.8,7.8-0.8
				C554.1,246.9,557.6,247.3,557.6,247.7z"/>
			<linearGradient id="SVGID_6_" gradientUnits="userSpaceOnUse" x1="541.9933" y1="164.0522" x2="557.5508" y2="164.0522">
				<stop  offset="0" style="stop-color:#666666"/>
				<stop  offset="0.6022" style="stop-color:#D4D3D3"/>
				<stop  offset="0.7638" style="stop-color:#D1D0D0"/>
				<stop  offset="0.8887" style="stop-color:#C7C6C6"/>
				<stop  offset="1" style="stop-color:#B7B6B6"/>
			</linearGradient>
			<path class="st24" d="M557.6,164.1c0,0.4-3.5,0.8-7.8,0.8c-4.3,0-7.8-0.4-7.8-0.8c0-0.4,3.5-0.8,7.8-0.8
				C554.1,163.3,557.6,163.6,557.6,164.1z"/>
		</g>
		<g>
			<linearGradient id="SVGID_7_" gradientUnits="userSpaceOnUse" x1="161.8916" y1="205.8897" x2="177.4409" y2="205.8897">
				<stop  offset="0" style="stop-color:#B7B6B6"/>
				<stop  offset="0.1113" style="stop-color:#C7C6C6"/>
				<stop  offset="0.2362" style="stop-color:#D1D0D0"/>
				<stop  offset="0.3978" style="stop-color:#D4D3D3"/>
				<stop  offset="1" style="stop-color:#666666"/>
			</linearGradient>
			<rect x="161.9" y="164.1" class="st25" width="15.5" height="83.7"/>
			<linearGradient id="SVGID_8_" gradientUnits="userSpaceOnUse" x1="161.8916" y1="247.7283" x2="177.4409" y2="247.7283">
				<stop  offset="0" style="stop-color:#B7B6B6"/>
				<stop  offset="0.1113" style="stop-color:#C7C6C6"/>
				<stop  offset="0.2362" style="stop-color:#D1D0D0"/>
				<stop  offset="0.3978" style="stop-color:#D4D3D3"/>
				<stop  offset="1" style="stop-color:#666666"/>
			</linearGradient>
			<path class="st26" d="M177.4,247.7c0,0.4-3.5,0.8-7.8,0.8c-4.3,0-7.8-0.3-7.8-0.8c0-0.4,3.5-0.8,7.8-0.8
				C174,246.9,177.4,247.3,177.4,247.7z"/>
			<linearGradient id="SVGID_9_" gradientUnits="userSpaceOnUse" x1="161.8916" y1="164.0522" x2="177.4409" y2="164.0522">
				<stop  offset="0" style="stop-color:#666666"/>
				<stop  offset="0.6022" style="stop-color:#D4D3D3"/>
				<stop  offset="0.7638" style="stop-color:#D1D0D0"/>
				<stop  offset="0.8887" style="stop-color:#C7C6C6"/>
				<stop  offset="1" style="stop-color:#B7B6B6"/>
			</linearGradient>
			<path class="st27" d="M177.4,164.1c0,0.4-3.5,0.8-7.8,0.8c-4.3,0-7.8-0.4-7.8-0.8c0-0.4,3.5-0.8,7.8-0.8
				C174,163.3,177.4,163.6,177.4,164.1z"/>
		</g>
		<g>
			<linearGradient id="SVGID_10_" gradientUnits="userSpaceOnUse" x1="607.6221" y1="177.1754" x2="623.1787" y2="177.1754">
				<stop  offset="0" style="stop-color:#B7B6B6"/>
				<stop  offset="0.1113" style="stop-color:#C7C6C6"/>
				<stop  offset="0.2362" style="stop-color:#D1D0D0"/>
				<stop  offset="0.3978" style="stop-color:#D4D3D3"/>
				<stop  offset="1" style="stop-color:#666666"/>
			</linearGradient>
			<rect x="607.6" y="135.3" class="st28" width="15.6" height="83.7"/>
			<linearGradient id="SVGID_11_" gradientUnits="userSpaceOnUse" x1="607.6221" y1="219.0156" x2="623.1787" y2="219.0156">
				<stop  offset="0" style="stop-color:#B7B6B6"/>
				<stop  offset="0.1113" style="stop-color:#C7C6C6"/>
				<stop  offset="0.2362" style="stop-color:#D1D0D0"/>
				<stop  offset="0.3978" style="stop-color:#D4D3D3"/>
				<stop  offset="1" style="stop-color:#666666"/>
			</linearGradient>
			<path class="st29" d="M623.2,219c0,0.4-3.5,0.8-7.8,0.8c-4.3,0-7.8-0.4-7.8-0.8c0-0.4,3.5-0.8,7.8-0.8
				C619.7,218.2,623.2,218.6,623.2,219z"/>
			<linearGradient id="SVGID_12_" gradientUnits="userSpaceOnUse" x1="607.6221" y1="135.3354" x2="623.1787" y2="135.3354">
				<stop  offset="0" style="stop-color:#666666"/>
				<stop  offset="0.6022" style="stop-color:#D4D3D3"/>
				<stop  offset="0.7638" style="stop-color:#D1D0D0"/>
				<stop  offset="0.8887" style="stop-color:#C7C6C6"/>
				<stop  offset="1" style="stop-color:#B7B6B6"/>
			</linearGradient>
			<path class="st30" d="M623.2,135.3c0,0.4-3.5,0.8-7.8,0.8c-4.3,0-7.8-0.4-7.8-0.8c0-0.4,3.5-0.8,7.8-0.8
				C619.7,134.5,623.2,134.9,623.2,135.3z"/>
		</g>
		<g>
			<polygon class="st31" points="220,127.6 674,127.6 674,132 571.9,178.1 110.1,178.1 110.1,173.8 			"/>
			<polygon class="st31" points="220,127.6 674,127.6 571.9,173.8 110.1,173.8 			"/>
			<polygon class="st32" points="571.9,173.8 571.9,178.1 674,132 674,127.6 			"/>
			<rect x="110.1" y="173.8" class="st32" width="461.8" height="4.4"/>
		</g>
		<g>
			<path class="st21" d="M177.2,85.5c2.9,0,5.6,1.5,5.9,4.4c0.2,2-1.4,3.8-4.7,2.7"/>
		</g>
		<g>
			<path class="st0" d="M159.2,73.5c3.2,3.7,9.7,6.6,15.1,8.6c3.8,1.4,3.6,2.3,4.3,5.5c0.7,1.8,1.1,5.8,1.6,7.6
				c-6.8-2-15.3-7.1-19.6-11.3c-1.1-1.2-5.6-3.8-5.9-5C154.5,77.3,156.9,75,159.2,73.5"/>
		</g>
		<g>
			<g>
				<path class="st7" d="M195.4,39.9c8.1,4,12.8,11.9,10.2,18.8c-1.2-2-2.9-3.6-5.5-5.1c-0.1,0.6-0.5,1.2-0.4,1.7
					c-1.3-0.4-2.2-1.2-3.5-1.8c0,0.5-0.3,0.8-0.3,0.9c-1.8-0.7-4.6-1.8-6.6-2.2c-2.9-0.6-2.7,0.5-5.4,0.1c-4.2-0.8-10-4.3-12.6-6.4
					c-3.6-2.7-5.4-5.3,0-7.5C177.2,36,186.5,35.6,195.4,39.9z"/>
			</g>
		</g>
		<g>
			<g>
				<path class="st7" d="M183.3,51.9c-5.1,1.3-4,8.7-9.3,10.6c-0.9-1.8-3.2-2.3-3.2-4.6c0-3-2.9-9.1-7.7-6.1c-2.9,2-4.2,7.3-2.8,10
					c1.8,3.1,3.1,4.4,2.4,8c-8-3.5-13.2-11-10.5-19.4c2-6.1,10-12.9,21.2-11.8"/>
			</g>
		</g>
		<path class="st5" d="M171.6,58.7c-0.8,3.7-4.1,6.5-7.2,6.2c-3.2-0.3-5-3.6-4.2-7.4c0.8-3.8,4.1-6.5,7.2-6.2
			C170.5,51.7,172.4,55,171.6,58.7z"/>
		<linearGradient id="SVGID_13_" gradientUnits="userSpaceOnUse" x1="514.3749" y1="145.8739" x2="606.2529" y2="145.8739">
			<stop  offset="0" style="stop-color:#F2F2F2"/>
			<stop  offset="1" style="stop-color:#9E9E9E"/>
		</linearGradient>
		<polygon class="st33" points="514.4,152.4 567.9,158.5 606.3,137.7 558.7,133.2 		"/>
		<linearGradient id="SVGID_14_" gradientUnits="userSpaceOnUse" x1="506.0112" y1="147.2986" x2="597.8851" y2="147.2986">
			<stop  offset="0" style="stop-color:#9E9E9E"/>
			<stop  offset="1" style="stop-color:#F2F2F2"/>
		</linearGradient>
		<polygon class="st34" points="506,153.8 559.6,159.9 597.9,139.1 550.4,134.7 		"/>
		<linearGradient id="SVGID_15_" gradientUnits="userSpaceOnUse" x1="319.7978" y1="144.284" x2="364.6094" y2="182.8558">
			<stop  offset="0" style="stop-color:#9E9E9E"/>
			<stop  offset="1" style="stop-color:#F2F2F2"/>
		</linearGradient>
		<polygon class="st35" points="316.5,155.3 298,169.6 374.9,170.9 381.7,153.6 		"/>
		<linearGradient id="SVGID_16_" gradientUnits="userSpaceOnUse" x1="313.9335" y1="141.6752" x2="358.739" y2="180.2418">
			<stop  offset="0" style="stop-color:#F2F2F2"/>
			<stop  offset="1" style="stop-color:#9E9E9E"/>
		</linearGradient>
		<polygon class="st36" points="310.6,152.7 292.2,167 369,168.3 375.9,151 		"/>
		<path d="M234.5,147.3c-6.1,3.9-4.3,7.1,4.2,7.1h62.5c8.4,0,8-4.9,9.2-10.6l2.1-3c1.2-5.6,0.9-10.3-7.5-10.3l-31.8,0
			c-8.4,0-13,0.8-19.1,4.7L234.5,147.3z"/>
		<path class="st5" d="M239.8,135.3l-8.6,0.2l0.4,7.1l8.6-0.2c9.2,2.1,11.4,0.6,18.4,0.1c8-0.6,11.7-1.3,11.4-2.5
			C268.2,134.4,252.7,132.4,239.8,135.3z"/>
		<polygon class="st0" points="236.7,144.7 226.5,145 225.6,134.3 235.8,134 		"/>
		<g>
			<path class="st6" d="M146.7,93.1c13.6-4.7,22.3,4.8,28.6,15.5c6.1,10.5,11,18.1,15,20.7c4.8,3,28.1,1.1,38.9,2.5
				c4.1,0,2.3,3.1,4.4,8.5c1.1,2.8,1.2,3.5,1.2,6.7c-7.8,1.8-8.9,0.6-28.7,0.7c-9.5,0.1-20.9,2.1-28.7,0.7
				c-3.7-0.7-12.6-8.2-19-16.6C148.4,118.8,133.1,97.8,146.7,93.1z"/>
		</g>
		<g>
			<g>
				<path class="st15" d="M154.7,74.6c-8.8,6.8-14.2,9.6-9.5,13c5.3,3.7,17.5,8.9,25.4,13c0.8-1.9,1.2-3.1,3.5-4.4
					c3.5,2,1.6,7.1,6,8.2c3.9,1.1,8.8,4.6,12.9,7.8c-2.8-8.1-5.7-13.6-16.7-22.8C171.6,85.5,152.7,77.8,154.7,74.6"/>
			</g>
		</g>
		<path d="M309,151.5c-0.7,1.9-3.6,3.2-6.4,2.7l-0.1,0c-2.9-0.5-4.7-2.4-4-4.4l15.8-45.7c0.7-1.9,3.6-3.2,6.4-2.7l0.1,0
			c2.9,0.5,4.7,2.4,4,4.4L309,151.5z"/>
		<path d="M301.2,146c-0.6,1.7-3,2.7-5.5,2.3l-0.1,0c-2.4-0.4-4-2-3.4-3.7l13.4-38.8c0.6-1.7,3.7-2.3,5.2-2.7
			c5.7-1.4,7.9-1.7,7.9-1.7L301.2,146z"/>
		<defs>
			<filter id="Adobe_OpacityMaskFilter" filterUnits="userSpaceOnUse" x="299.1" y="106.1" width="17.9" height="37.4">
				<feFlood  style="flood-color:white;flood-opacity:1" result="back"/>
				<feBlend  in="SourceGraphic" in2="back" mode="normal"/>
			</filter>
		</defs>
		<mask maskUnits="userSpaceOnUse" x="299.1" y="106.1" width="17.9" height="37.4" id="SVGID_17_">
			<g class="st37">
				<defs>
					<filter id="Adobe_OpacityMaskFilter_1_" filterUnits="userSpaceOnUse" x="299.1" y="106.1" width="17.9" height="37.4">
						<feFlood  style="flood-color:white;flood-opacity:1" result="back"/>
						<feBlend  in="SourceGraphic" in2="back" mode="normal"/>
					</filter>
				</defs>
				<mask maskUnits="userSpaceOnUse" x="299.1" y="106.1" width="17.9" height="37.4" id="SVGID_17_">
					<g class="st38">
					</g>
				</mask>
				<linearGradient id="SVGID_18_" gradientUnits="userSpaceOnUse" x1="299.0564" y1="124.7568" x2="316.9581" y2="124.7568">
					<stop  offset="0" style="stop-color:#000000"/>
					<stop  offset="0.2141" style="stop-color:#323232"/>
					<stop  offset="0.6994" style="stop-color:#AFAFAF"/>
					<stop  offset="1" style="stop-color:#FFFFFF"/>
				</linearGradient>
				<polygon class="st39" points="307.3,107.3 317,106.1 304.1,143.4 299.1,131.4 				"/>
			</g>
		</mask>
		<linearGradient id="SVGID_19_" gradientUnits="userSpaceOnUse" x1="299.0564" y1="124.7568" x2="316.9581" y2="124.7568">
			<stop  offset="0" style="stop-color:#FDFDFE"/>
			<stop  offset="1" style="stop-color:#FDFDFE"/>
		</linearGradient>
		<polygon class="st40" points="307.3,107.3 317,106.1 304.1,143.4 299.1,131.4 		"/>
		<g>
			
				<linearGradient id="SVGID_20_" gradientUnits="userSpaceOnUse" x1="-179.2467" y1="298.6424" x2="-178.0654" y2="298.6424" gradientTransform="matrix(-0.9394 0.343 -0.343 -0.9394 481.5 487.4039)">
				<stop  offset="0" style="stop-color:#FBB03B"/>
				<stop  offset="1" style="stop-color:#F15A24"/>
			</linearGradient>
			<polygon class="st41" points="546,144.9 546.9,144.7 547.8,146.3 546.9,146.5 			"/>
			<polygon points="547.3,144.8 548.2,144.5 548.9,145.8 548,146 			"/>
			<polygon points="546.4,144.7 547.3,144.5 548.3,146.2 547.4,146.5 			"/>
			
				<linearGradient id="SVGID_21_" gradientUnits="userSpaceOnUse" x1="-194.2692" y1="299.495" x2="-194.2692" y2="294.4028" gradientTransform="matrix(-0.9394 0.343 -0.343 -0.9394 481.5 487.4039)">
				<stop  offset="0" style="stop-color:#F57B2D"/>
				<stop  offset="1.031795e-02" style="stop-color:#F57F2E"/>
				<stop  offset="8.438775e-02" style="stop-color:#F89434"/>
				<stop  offset="0.1658" style="stop-color:#FAA438"/>
				<stop  offset="0.2593" style="stop-color:#FBAD3A"/>
				<stop  offset="0.3925" style="stop-color:#FBB03B"/>
				<stop  offset="1" style="stop-color:#F15A24"/>
			</linearGradient>
			<polygon class="st42" points="547.7,144.4 575.6,137.5 576.5,139.3 548.7,146.1 			"/>
			<polygon points="547.3,146.4 548,146.2 548.4,146.9 547.7,147.1 			"/>
			
				<linearGradient id="SVGID_22_" gradientUnits="userSpaceOnUse" x1="-202.3537" y1="297.6971" x2="-202.3537" y2="294.4355" gradientTransform="matrix(-0.9394 0.343 -0.343 -0.9394 481.5 487.4039)">
				<stop  offset="0" style="stop-color:#070707"/>
				<stop  offset="1.621753e-02" style="stop-color:#0E0E0E"/>
				<stop  offset="9.459702e-02" style="stop-color:#292929"/>
				<stop  offset="0.1736" style="stop-color:#3D3D3D"/>
				<stop  offset="0.253" style="stop-color:#494949"/>
				<stop  offset="0.3333" style="stop-color:#4D4D4D"/>
				<stop  offset="0.465" style="stop-color:#464646"/>
				<stop  offset="0.6542" style="stop-color:#333333"/>
				<stop  offset="0.877" style="stop-color:#141414"/>
				<stop  offset="1" style="stop-color:#000000"/>
			</linearGradient>
			<polygon class="st43" points="565.1,139.9 573.9,137.8 575,139.8 566.2,142 			"/>
			<g>
				
					<linearGradient id="SVGID_23_" gradientUnits="userSpaceOnUse" x1="-205.688" y1="296.8843" x2="-205.688" y2="294.529" gradientTransform="matrix(-0.9394 0.343 -0.343 -0.9394 481.5 487.4039)">
					<stop  offset="0" style="stop-color:#000000"/>
					<stop  offset="6.049668e-02" style="stop-color:#141414"/>
					<stop  offset="0.1701" style="stop-color:#333333"/>
					<stop  offset="0.2632" style="stop-color:#464646"/>
					<stop  offset="0.328" style="stop-color:#4D4D4D"/>
					<stop  offset="0.4704" style="stop-color:#2E2E2E"/>
					<stop  offset="0.6204" style="stop-color:#151515"/>
					<stop  offset="0.7565" style="stop-color:#050505"/>
					<stop  offset="0.8656" style="stop-color:#000000"/>
				</linearGradient>
				<polygon class="st44" points="572.4,138.1 573.1,138 574.2,140 573.5,140.2 				"/>
				
					<linearGradient id="SVGID_24_" gradientUnits="userSpaceOnUse" x1="-204.3568" y1="297.0322" x2="-204.3568" y2="294.6653" gradientTransform="matrix(-0.9394 0.343 -0.343 -0.9394 481.5 487.4039)">
					<stop  offset="0" style="stop-color:#000000"/>
					<stop  offset="6.049668e-02" style="stop-color:#141414"/>
					<stop  offset="0.1701" style="stop-color:#333333"/>
					<stop  offset="0.2632" style="stop-color:#464646"/>
					<stop  offset="0.328" style="stop-color:#4D4D4D"/>
					<stop  offset="0.4704" style="stop-color:#2E2E2E"/>
					<stop  offset="0.6204" style="stop-color:#151515"/>
					<stop  offset="0.7565" style="stop-color:#050505"/>
					<stop  offset="0.8656" style="stop-color:#000000"/>
				</linearGradient>
				<polygon class="st45" points="571.1,138.4 571.8,138.3 572.9,140.3 572.2,140.5 				"/>
				
					<linearGradient id="SVGID_25_" gradientUnits="userSpaceOnUse" x1="-203.0246" y1="297.1724" x2="-203.0246" y2="294.8158" gradientTransform="matrix(-0.9394 0.343 -0.343 -0.9394 481.5 487.4039)">
					<stop  offset="0" style="stop-color:#000000"/>
					<stop  offset="6.049668e-02" style="stop-color:#141414"/>
					<stop  offset="0.1701" style="stop-color:#333333"/>
					<stop  offset="0.2632" style="stop-color:#464646"/>
					<stop  offset="0.328" style="stop-color:#4D4D4D"/>
					<stop  offset="0.4704" style="stop-color:#2E2E2E"/>
					<stop  offset="0.6204" style="stop-color:#151515"/>
					<stop  offset="0.7565" style="stop-color:#050505"/>
					<stop  offset="0.8656" style="stop-color:#000000"/>
				</linearGradient>
				<polygon class="st46" points="569.8,138.8 570.5,138.6 571.6,140.6 570.9,140.8 				"/>
				
					<linearGradient id="SVGID_26_" gradientUnits="userSpaceOnUse" x1="-201.6885" y1="297.3257" x2="-201.6885" y2="294.956" gradientTransform="matrix(-0.9394 0.343 -0.343 -0.9394 481.5 487.4039)">
					<stop  offset="0" style="stop-color:#000000"/>
					<stop  offset="6.049668e-02" style="stop-color:#141414"/>
					<stop  offset="0.1701" style="stop-color:#333333"/>
					<stop  offset="0.2632" style="stop-color:#464646"/>
					<stop  offset="0.328" style="stop-color:#4D4D4D"/>
					<stop  offset="0.4704" style="stop-color:#2E2E2E"/>
					<stop  offset="0.6204" style="stop-color:#151515"/>
					<stop  offset="0.7565" style="stop-color:#050505"/>
					<stop  offset="0.8656" style="stop-color:#000000"/>
				</linearGradient>
				<polygon class="st47" points="568.5,139.1 569.2,138.9 570.3,141 569.6,141.1 				"/>
				
					<linearGradient id="SVGID_27_" gradientUnits="userSpaceOnUse" x1="-200.3515" y1="297.4658" x2="-200.3515" y2="295.1013" gradientTransform="matrix(-0.9394 0.343 -0.343 -0.9394 481.5 487.4039)">
					<stop  offset="0" style="stop-color:#000000"/>
					<stop  offset="6.049668e-02" style="stop-color:#141414"/>
					<stop  offset="0.1701" style="stop-color:#333333"/>
					<stop  offset="0.2632" style="stop-color:#464646"/>
					<stop  offset="0.328" style="stop-color:#4D4D4D"/>
					<stop  offset="0.4704" style="stop-color:#2E2E2E"/>
					<stop  offset="0.6204" style="stop-color:#151515"/>
					<stop  offset="0.7565" style="stop-color:#050505"/>
					<stop  offset="0.8656" style="stop-color:#000000"/>
				</linearGradient>
				<polygon class="st48" points="567.2,139.4 567.9,139.3 569,141.3 568.3,141.5 				"/>
				
					<linearGradient id="SVGID_28_" gradientUnits="userSpaceOnUse" x1="-199.0213" y1="297.6124" x2="-199.0213" y2="295.2469" gradientTransform="matrix(-0.9394 0.343 -0.343 -0.9394 481.5 487.4039)">
					<stop  offset="0" style="stop-color:#000000"/>
					<stop  offset="6.049668e-02" style="stop-color:#141414"/>
					<stop  offset="0.1701" style="stop-color:#333333"/>
					<stop  offset="0.2632" style="stop-color:#464646"/>
					<stop  offset="0.328" style="stop-color:#4D4D4D"/>
					<stop  offset="0.4704" style="stop-color:#2E2E2E"/>
					<stop  offset="0.6204" style="stop-color:#151515"/>
					<stop  offset="0.7565" style="stop-color:#050505"/>
					<stop  offset="0.8656" style="stop-color:#000000"/>
				</linearGradient>
				<polygon class="st49" points="565.9,139.7 566.6,139.6 567.7,141.6 567,141.8 				"/>
			</g>
			
				<linearGradient id="SVGID_29_" gradientUnits="userSpaceOnUse" x1="-210.1644" y1="296.4004" x2="-210.1644" y2="294.4028" gradientTransform="matrix(-0.9394 0.343 -0.343 -0.9394 481.5 487.4039)">
				<stop  offset="0" style="stop-color:#8B878D"/>
				<stop  offset="0.5063" style="stop-color:#F3F4F4"/>
				<stop  offset="0.741" style="stop-color:#B5B3B6"/>
				<stop  offset="0.9119" style="stop-color:#8F8A8F"/>
				<stop  offset="1" style="stop-color:#807B80"/>
			</linearGradient>
			<polygon class="st50" points="575.6,137.5 579.4,137.6 576.5,139.3 			"/>
			<polygon points="579.4,137.5 578.8,137.6 579,137.8 579.5,137.6 			"/>
			
				<linearGradient id="SVGID_30_" gradientUnits="userSpaceOnUse" x1="-185.194" y1="297.3132" x2="-185.194" y2="295.2143" gradientTransform="matrix(-0.9394 0.343 -0.343 -0.9394 481.5 487.4039)">
				<stop  offset="0" style="stop-color:#000000"/>
				<stop  offset="1" style="stop-color:#1A1A1A"/>
			</linearGradient>
			<polygon class="st51" points="547.5,146.8 559.8,143.7 560.2,144.4 547.9,147.4 			"/>
		</g>
		<g>
			<linearGradient id="SVGID_31_" gradientUnits="userSpaceOnUse" x1="582.4341" y1="142.6713" x2="613.3403" y2="142.6713">
				<stop  offset="0" style="stop-color:#FFFFFF"/>
				<stop  offset="0.1523" style="stop-color:#F3F3F3"/>
				<stop  offset="0.4272" style="stop-color:#D3D3D3"/>
				<stop  offset="0.7904" style="stop-color:#A1A1A1"/>
				<stop  offset="1" style="stop-color:#808080"/>
			</linearGradient>
			<path class="st52" d="M613.3,142.7c0,1.8-6.9,3.3-15.4,3.3c-8.5,0-15.4-1.5-15.4-3.3c0-0.3-0.1-1,0.2-1.3
				c1.6-1.5,7.9-2.1,15.2-2.1c7.1,0,13.5,0.7,15.3,2.1C613.5,141.7,613.3,142.4,613.3,142.7z"/>
			<linearGradient id="SVGID_32_" gradientUnits="userSpaceOnUse" x1="582.4552" y1="141.7864" x2="613.2524" y2="141.7864">
				<stop  offset="0" style="stop-color:#808080"/>
				<stop  offset="0.2096" style="stop-color:#A1A1A1"/>
				<stop  offset="0.5728" style="stop-color:#D3D3D3"/>
				<stop  offset="0.8477" style="stop-color:#F3F3F3"/>
				<stop  offset="1" style="stop-color:#FFFFFF"/>
			</linearGradient>
			<path class="st53" d="M613.3,141.8c0,1.8-6.9,3.3-15.4,3.3c-8.5,0-15.4-1.5-15.4-3.3c0-1.9,6.9-3.3,15.4-3.3
				C606.4,138.4,613.3,139.9,613.3,141.8z"/>
			<linearGradient id="SVGID_33_" gradientUnits="userSpaceOnUse" x1="588.105" y1="141.5357" x2="607.6017" y2="141.5357">
				<stop  offset="0" style="stop-color:#808080"/>
				<stop  offset="0.4531" style="stop-color:#A5A5A5"/>
				<stop  offset="1" style="stop-color:#CDCDCD"/>
			</linearGradient>
			<path class="st54" d="M607.6,141.5c0,1.2-4.4,2.1-9.7,2.1c-5.4,0-9.7-0.9-9.7-2.1c0-1.2,4.4-2.1,9.7-2.1
				C603.2,139.4,607.6,140.4,607.6,141.5z"/>
			<linearGradient id="SVGID_34_" gradientUnits="userSpaceOnUse" x1="603.8843" y1="136.2937" x2="611.4019" y2="136.2937">
				<stop  offset="0" style="stop-color:#FFFFFF"/>
				<stop  offset="0.1523" style="stop-color:#F3F3F3"/>
				<stop  offset="0.4272" style="stop-color:#D3D3D3"/>
				<stop  offset="0.7904" style="stop-color:#A1A1A1"/>
				<stop  offset="1" style="stop-color:#808080"/>
			</linearGradient>
			<path class="st55" d="M604.6,139.4l-0.7-1.3l4.5-1.2c0.4-0.1,0.7-0.3,0.9-0.6c0.2-0.3,0.2-0.6,0-0.9c-0.3-0.6-1.3-0.9-2.1-0.7
				l-0.7-1.3c1.9-0.5,4,0.2,4.7,1.5c0.3,0.6,0.3,1.4-0.1,2c-0.4,0.6-1.1,1.1-2,1.4L604.6,139.4z"/>
			<linearGradient id="SVGID_35_" gradientUnits="userSpaceOnUse" x1="588.3634" y1="137.2282" x2="607.3523" y2="137.2282">
				<stop  offset="0" style="stop-color:#FFFFFF"/>
				<stop  offset="0.1523" style="stop-color:#F3F3F3"/>
				<stop  offset="0.4272" style="stop-color:#D3D3D3"/>
				<stop  offset="0.7904" style="stop-color:#A1A1A1"/>
				<stop  offset="1" style="stop-color:#808080"/>
			</linearGradient>
			<path class="st56" d="M597.9,132h-9.5c0,4,1.2,7.5,4.4,9.6c1,0.7,3.5,0.9,5.1,0.9c1.6,0,4.1-0.2,5.1-0.9c3.2-2,4.4-5.5,4.4-9.6
				H597.9z"/>
			<path class="st57" d="M601.8,141.3c-0.2,0.2-1.6,0.2-1.6,0.2s1.8-4.4,0.3-8.6h3.7C604.2,132.9,604.7,138.3,601.8,141.3z"/>
			<path class="st58" d="M607.4,132c0,0.4-4.3,0.8-9.5,0.8c-5.2,0-9.5-0.4-9.5-0.8c0-0.4,4.3-0.8,9.5-0.8
				C603.1,131.2,607.4,131.6,607.4,132z"/>
			<path class="st7" d="M597.9,131.6c-4.4,0-8,0.3-8,0.7c0,0,0,0.1,0.2,0.1c1.7,0.2,4.6,0.3,7.9,0.3c3.3,0,6.2-0.1,7.9-0.3
				c0.1,0,0.2-0.1,0.2-0.1C605.9,131.9,602.3,131.6,597.9,131.6z"/>
		</g>
		<g>
			<linearGradient id="SVGID_36_" gradientUnits="userSpaceOnUse" x1="197.7886" y1="162.5628" x2="228.6985" y2="162.5628">
				<stop  offset="0" style="stop-color:#FFFFFF"/>
				<stop  offset="0.1523" style="stop-color:#F3F3F3"/>
				<stop  offset="0.4272" style="stop-color:#D3D3D3"/>
				<stop  offset="0.7904" style="stop-color:#A1A1A1"/>
				<stop  offset="1" style="stop-color:#808080"/>
			</linearGradient>
			<path class="st59" d="M228.6,162.6c0,1.8-6.9,3.3-15.4,3.3c-8.5,0-15.4-1.5-15.4-3.3c0-0.3-0.1-1,0.2-1.3
				c1.6-1.5,7.9-2.1,15.3-2.1c7.1,0,13.5,0.7,15.3,2.1C228.9,161.6,228.6,162.3,228.6,162.6z"/>
			<linearGradient id="SVGID_37_" gradientUnits="userSpaceOnUse" x1="197.8103" y1="161.6768" x2="228.6108" y2="161.6768">
				<stop  offset="0" style="stop-color:#808080"/>
				<stop  offset="0.2096" style="stop-color:#A1A1A1"/>
				<stop  offset="0.5728" style="stop-color:#D3D3D3"/>
				<stop  offset="0.8477" style="stop-color:#F3F3F3"/>
				<stop  offset="1" style="stop-color:#FFFFFF"/>
			</linearGradient>
			<path class="st60" d="M228.6,161.7c0,1.8-6.9,3.3-15.4,3.3c-8.5,0-15.4-1.5-15.4-3.3c0-1.9,6.9-3.3,15.4-3.3
				C221.7,158.3,228.6,159.8,228.6,161.7z"/>
			<linearGradient id="SVGID_38_" gradientUnits="userSpaceOnUse" x1="203.4561" y1="161.4272" x2="222.961" y2="161.4272">
				<stop  offset="0" style="stop-color:#808080"/>
				<stop  offset="0.4531" style="stop-color:#A5A5A5"/>
				<stop  offset="1" style="stop-color:#CDCDCD"/>
			</linearGradient>
			<path class="st61" d="M223,161.4c0,1.2-4.4,2.1-9.7,2.1c-5.4,0-9.8-0.9-9.8-2.1c0-1.2,4.4-2.1,9.8-2.1
				C218.6,159.3,223,160.3,223,161.4z"/>
			<linearGradient id="SVGID_39_" gradientUnits="userSpaceOnUse" x1="203.7177" y1="157.1203" x2="222.6993" y2="157.1203">
				<stop  offset="0" style="stop-color:#FFFFFF"/>
				<stop  offset="0.1523" style="stop-color:#F3F3F3"/>
				<stop  offset="0.4272" style="stop-color:#D3D3D3"/>
				<stop  offset="0.7904" style="stop-color:#A1A1A1"/>
				<stop  offset="1" style="stop-color:#808080"/>
			</linearGradient>
			<path class="st62" d="M213.2,151.9h-9.5c0,4,1.2,7.5,4.4,9.6c1,0.7,3.5,0.9,5.1,0.9c1.6,0,4.1-0.2,5.1-0.9c3.2-2,4.4-5.5,4.4-9.6
				H213.2z"/>
			<path class="st57" d="M217.2,161.2c-0.2,0.2-1.6,0.2-1.6,0.2s1.8-4.4,0.3-8.6h3.7C219.6,152.8,220.1,158.2,217.2,161.2z"/>
			<path class="st58" d="M222.7,151.9c0,0.4-4.3,0.8-9.5,0.8c-5.2,0-9.5-0.4-9.5-0.8s4.2-0.8,9.5-0.8
				C218.4,151.1,222.7,151.5,222.7,151.9z"/>
			<path class="st7" d="M213.2,151.5c-4.4,0-8,0.3-8,0.7c0,0,0.1,0.1,0.2,0.1c1.7,0.2,4.6,0.4,7.8,0.4c3.3,0,6.2-0.1,7.9-0.4
				c0.1,0,0.2-0.1,0.2-0.1C221.3,151.8,217.7,151.5,213.2,151.5z"/>
		</g>
		<g>
			<polygon points="471.8,163.7 505,153.2 540,153.2 515.7,163.9 			"/>
			<g>
				<path class="st63" d="M542.9,142.1L542.9,142.1l-0.3,0c-0.2,0-0.4,0-0.6,0h-37.1v0l-33.1,10.5l43.9,0.2c0,0,0.4,0.1,0.9,0.4
					l2,1.5c0.9,0.9,1.6,2.3,1.3,4.2c-0.6,3.6-2.4,5.2-3.1,5.7l27.1-9.9c0,0,0.2-0.1,0.5-0.3c1.9-0.5,4.1-1.9,4.1-6
					C548.6,144.6,546.5,142.4,542.9,142.1z"/>
				<path class="st64" d="M516.5,164.8c0,0,0.1-0.1,0.3-0.2l-1.1,0.4L516.5,164.8z"/>
			</g>
			<linearGradient id="SVGID_40_" gradientUnits="userSpaceOnUse" x1="473.4645" y1="158.8238" x2="520.4962" y2="158.8238">
				<stop  offset="0.1505" style="stop-color:#C69C6D"/>
				<stop  offset="1" style="stop-color:#8C6239"/>
			</linearGradient>
			<path class="st65" d="M473.5,153.3c1.2,0.7,6.5,5.8,0,11.2c0,0,37.2,0.6,42.8-0.6c5.6-1.2,4.5-6.6,3.1-7.7c-1.5-1-0.9-2.2-7-3
				C506.3,152.5,473.5,153.3,473.5,153.3z"/>
			<path class="st66" d="M514,165.1h-42.2v-1.5H514c2,0,5.3-0.6,5.3-4.8c0-3.2-2-4.8-5.9-4.8h-41.7v-1.5h41.7c4.7,0,7.4,2.3,7.4,6.3
				C520.9,164.6,515.6,165.1,514,165.1z"/>
			<path class="st67" d="M475.8,161.7c0,0,35.4,0.3,38,0c2.6-0.3-35.7-0.6-37.6-0.7L475.8,161.7z"/>
			<g>
				<g>
					<path class="st68" d="M476.7,159.1"/>
				</g>
			</g>
			<g>
				<g>
					<path class="st68" d="M476.7,159.1"/>
				</g>
			</g>
			<path class="st67" d="M476.6,159.1l32.7-0.2c0,0-18.7-0.9-32.7-0.5V159.1z"/>
			<polygon class="st67" points="476,156.4 511.6,157.2 476.3,157.2 			"/>
			<polygon class="st66" points="486.5,150.2 503.9,144.9 533.9,144.9 516.1,150.2 			"/>
		</g>
		<path d="M455.1,149.2c8.4,0,13.3,0.3,15.2-0.2c7.2-2.2,27.9-8.5,27.9-8.5c7.6-2.4,7-4.4-1.4-4.4h-71c-8.4,0-21.1,2.5-28.2,5.6
			l-4.7,2c-7.1,3.1-6,5.6,2.4,5.6H455.1z"/>
		<path d="M455.1,147.3c8.4,0,12.6,0.8,14.6,0.3l33.9-10c0,0,0.4-1.5-0.1-2.3c-0.5-0.7-2.7-1.2-6.7-1.1h-71
			c-8.4,0-21.1,2.5-28.2,5.6l-4.7,2c-7.1,3.1-6,5.6,2.4,5.6H455.1z"/>
		<g>
			<path class="st12" d="M472.8,129.7c-2.4,4.5,16.2,10.3,20,8.5c4.3-2-0.2-2.7-2.1-4.4c-3.2-3-5.2-4.5-11.2-4.5"/>
		</g>
		<g>
			<path class="st5" d="M500.9,132.8c-8.8,0.7-21.8,8.6-32.3,7c-8.8-1.4-0.7-6.8,3.7-8.4c5.4-1.8,11.8-2.1,17.9-2.1"/>
		</g>
		<g>
			<path class="st6" d="M504.4,72.2c8,1.9,14.2,1.3,24.1,2.5c10.8,1.2,7.3,10.6,8.2,17c0.5,6.7,0.3,13.3-0.7,22.3
				c-0.5,4.9-1.2,8.8-7.5,11.5c-4.5,1.8-36.9,13.1-36.9,13.1c-4.1-5.8-12.1-9.2-18.8-8.9c7.4-3.8,39.1-12.6,42.1-15.1
				c3.5-2.8,1.2-10.6,1.9-15.9"/>
		</g>
		<g>
			<path class="st15" d="M504.4,68.2c3.6,0.2,10.3,2,13,3.8c2.7,1.8,2,4.3,2,6.7c0,4.7-0.4,11.6-5,15.4c-2.3-1.7-5-2.1-8.1-2.6
				c0,2.3,1.2,4.3-0.2,4.9c-4.7,1.7-17.3,9.3-20.4,12.3c1.9-4.1,3.3-5.4,5.5-8.4c2.7-4,7-9.4,9.3-13.5c1.8-3.4,2.9-5.9,3.1-9.5
				C504,74.4,503.5,70.9,504.4,68.2"/>
		</g>
		<g>
			<path class="st7" d="M511,33.3c4.8,5.5,6.1,11.7,6.5,15.8c0.5,3.6-0.2,7.3,0.7,10.9c1.2,4.4,5.8,7.8,6.9,12
				c1.2,4.7-1.6,7.5-4.9,11.7c-3.5,4.5-5.1,10.8-5.1,16c-2.1-5,0-10.3-2.8-15.2c-1.9-3.6-4.6-6.7-6.2-10.3c-2.1-4.7-2.4-8.3,0.1-13
				c2.5-4.8,8.3-7.5,9.7-12.8c0.2-0.6,0.7-3.1,0.7-3.7"/>
		</g>
		<g>
			<path d="M473.5,144.5c0,2.9-3.4,5.2-7.7,5.2h-80.6c-4.2,0-7.7-2.3-7.7-5.2c0,0-5.3-21.6-7-30.5c-0.5-2.8,3.5-5.2,7.7-5.2h80.6
				c4.2,0,7,2.4,7.7,5.2C468.6,122.9,473.5,144.5,473.5,144.5z"/>
			<defs>
				<filter id="Adobe_OpacityMaskFilter_2_" filterUnits="userSpaceOnUse" x="371.7" y="112.3" width="95.9" height="36.9">
					<feFlood  style="flood-color:white;flood-opacity:1" result="back"/>
					<feBlend  in="SourceGraphic" in2="back" mode="normal"/>
				</filter>
			</defs>
			<mask maskUnits="userSpaceOnUse" x="371.7" y="112.3" width="95.9" height="36.9" id="SVGID_41_">
				<g class="st69">
					<defs>
						<filter id="Adobe_OpacityMaskFilter_3_" filterUnits="userSpaceOnUse" x="371.7" y="112.3" width="95.9" height="36.9">
							<feFlood  style="flood-color:white;flood-opacity:1" result="back"/>
							<feBlend  in="SourceGraphic" in2="back" mode="normal"/>
						</filter>
					</defs>
					<mask maskUnits="userSpaceOnUse" x="371.7" y="112.3" width="95.9" height="36.9" id="SVGID_41_">
						<g class="st70">
						</g>
					</mask>
					<linearGradient id="SVGID_42_" gradientUnits="userSpaceOnUse" x1="402.4054" y1="160.6086" x2="436.8276" y2="100.9876">
						<stop  offset="0.3172" style="stop-color:#000000"/>
						<stop  offset="0.4281" style="stop-color:#030303"/>
						<stop  offset="0.5171" style="stop-color:#0D0D0D"/>
						<stop  offset="0.5986" style="stop-color:#1E1E1E"/>
						<stop  offset="0.6757" style="stop-color:#363636"/>
						<stop  offset="0.7495" style="stop-color:#555555"/>
						<stop  offset="0.821" style="stop-color:#7B7B7B"/>
						<stop  offset="0.8907" style="stop-color:#A7A7A7"/>
						<stop  offset="0.9571" style="stop-color:#DADADA"/>
						<stop  offset="1" style="stop-color:#FFFFFF"/>
					</linearGradient>
					<path class="st71" d="M467.6,144.4c0,2.7-3.2,4.8-7.2,4.8h-75c-4,0-7.2-2.2-7.2-4.8l-6.5-27.2c0-2.7,3.2-4.8,7.2-4.8h75
						c3.9,0,7.2,2.2,7.2,4.8L467.6,144.4z"/>
				</g>
			</mask>
			<linearGradient id="SVGID_43_" gradientUnits="userSpaceOnUse" x1="402.4054" y1="160.6086" x2="436.8276" y2="100.9876">
				<stop  offset="0.3172" style="stop-color:#FDFDFE"/>
				<stop  offset="0.9388" style="stop-color:#FDFDFE"/>
				<stop  offset="1" style="stop-color:#FDFDFE"/>
			</linearGradient>
			<path class="st72" d="M467.6,144.4c0,2.7-3.2,4.8-7.2,4.8h-75c-4,0-7.2-2.2-7.2-4.8l-6.5-27.2c0-2.7,3.2-4.8,7.2-4.8h75
				c3.9,0,7.2,2.2,7.2,4.8L467.6,144.4z"/>
		</g>
	</g>
</g>
</svg>
